Puss In Boots 2011 DVDSCR - ViBE

A story about the events leading up to the sword fighting cat\'s meeting with Shrek and his friends. 

 Director: Chris Miller
 Writers: Charles Perrault (character), William Davies (story),  and 4 more credits » 
Stars: Antonio Banderas, Salma Hayek and Zach Galifianakis

File size: 704 MiB
 Duration: 1h 30mn
 Overall bit rate: 1 090 Kbps

 Video
 ID: 0
 Format: MPEG-4 Visual
 Format profile: Advanced Simple@L5
 Format settings, BVOP: 2
 Format settings, QPel: No
 Format settings, GMC: No warppoints
 Format settings, Matrix: Default (H.263)
 Muxing mode: Packed bitstream
 Codec ID: XVID
 Codec ID/Hint: XviD
 Duration: 1h 30mn
 Bit rate: 886 Kbps
 Width: 720 pixels
 Height: 304 pixels
 Display aspect ratio: 2.35:1
 Frame rate: 29.970 fps
 Color space: YUV
 Chroma subsampling: 4:2:0
 Bit depth: 8 bits
 Scan type: Progressive
 Compression mode: Lossy
 Bits/(Pixel*Frame): 0.135
 Stream size: 572 MiB (81%)
 Writing library: XviD 64

 Audio
 ID: 1
 Format: AC-3
 Format/Info: Audio Coding 3
 Mode extension: CM (complete main)
 Codec ID: 2000
 Duration: 1h 30mn
 Bit rate mode: Constant
 Bit rate: 192 Kbps
 Channel(s): 2 channels
 Channel positions: Front: L R
 Sampling rate: 48.0 KHz
 Bit depth: 16 bits
 Compression mode: Lossy
 Stream size: 124 MiB (18%)
 Alignment: Split accross interleaves
 Interleave, duration: 33 ms (1.00 video frame)
 Interleave, preload duration: 500 ms 
http://www.imdb.com/title/tt0448694/

